<svg width="114" height="55" viewBox="0 0 114 55" fill="none" xmlns="http://www.w3.org/2000/svg">
<path d="M71.0395 22.2107C72.0539 27.5677 68.1157 35.1588 59.2961 32.0644C58.7998 31.8903 58.3474 31.6057 57.937 31.2767C53.3372 27.5896 48.8829 26.2437 45.8708 28.5029C42.7248 30.8625 37.219 33.2221 33.2863 30.076C29.3537 26.9298 28.0069 19.254 38.0055 15.9184C44.4607 14.484 45.928 19.0225 48.8956 19.7544C49.483 19.8992 50.1048 19.7505 50.5832 19.38C52.8367 17.6346 55.339 12.854 62.3878 13.5589C66.3204 13.9522 70.1461 17.4915 71.0395 22.2107Z" fill="#A563E7"/>
<path d="M18.2346 46.8616C18.0604 49.2683 17.1695 51.163 15.5616 52.5455C13.9639 53.9281 11.8542 54.6194 9.23249 54.6194C6.36494 54.6194 4.10674 53.6567 2.4579 51.7314C0.8193 49.7958 0 47.1433 0 43.7739V42.4067C0 40.256 0.378926 38.3614 1.13678 36.7228C1.89463 35.0842 2.97508 33.8296 4.37814 32.9591C5.79143 32.0784 7.43003 31.638 9.29394 31.638C11.8747 31.638 13.9537 32.3293 15.5309 33.7119C17.108 35.0944 18.0195 37.0352 18.2653 39.534H13.6567C13.5441 38.09 13.1395 37.0454 12.4431 36.4002C11.757 35.7448 10.7072 35.417 9.29394 35.417C7.75775 35.417 6.60561 35.9701 5.83751 37.0761C5.07966 38.1719 4.69049 39.8771 4.67001 42.1916V43.8814C4.67001 46.2984 5.03358 48.065 5.7607 49.1813C6.49807 50.2976 7.65534 50.8557 9.23249 50.8557C10.656 50.8557 11.716 50.5331 12.4124 49.8879C13.119 49.2325 13.5236 48.2237 13.626 46.8616H18.2346Z" fill="#2E1449"/>
<path d="M25.6543 54.3122H21.1994V30.7163H25.6543V54.3122Z" fill="#2E1449"/>
<path d="M28.6345 45.8478C28.6345 44.1989 28.952 42.7293 29.587 41.4389C30.2219 40.1485 31.1334 39.15 32.3214 38.4433C33.5196 37.7367 34.9073 37.3834 36.4845 37.3834C38.7273 37.3834 40.5554 38.0695 41.9687 39.4419C43.3922 40.8142 44.1859 42.6781 44.3497 45.0336L44.3805 46.1704C44.3805 48.7204 43.6687 50.7687 42.2452 52.3151C40.8216 53.8513 38.9116 54.6194 36.5152 54.6194C34.1187 54.6194 32.2036 53.8513 30.7698 52.3151C29.3463 50.7789 28.6345 48.6897 28.6345 46.0475V45.8478ZM33.0741 46.1704C33.0741 47.7475 33.3711 48.956 33.9651 49.7958C34.5591 50.6253 35.4091 51.0401 36.5152 51.0401C37.5905 51.0401 38.4303 50.6304 39.0345 49.8111C39.6388 48.9816 39.9409 47.6605 39.9409 45.8478C39.9409 44.3013 39.6388 43.1031 39.0345 42.2531C38.4303 41.4031 37.5803 40.978 36.4845 40.978C35.3989 40.978 34.5591 41.4031 33.9651 42.2531C33.3711 43.0929 33.0741 44.3986 33.0741 46.1704Z" fill="#2E1449"/>
<path d="M57.0694 52.6223C55.9736 53.9537 54.4579 54.6194 52.5223 54.6194C50.7403 54.6194 49.3782 54.1073 48.436 53.0832C47.504 52.0591 47.0278 50.5587 47.0073 48.5822V37.6906H51.4469V48.4286C51.4469 50.1593 52.2355 51.0247 53.8127 51.0247C55.3181 51.0247 56.3525 50.5024 56.9158 49.4578V37.6906H61.3707V54.3122H57.1923L57.0694 52.6223Z" fill="#2E1449"/>
<path d="M64.0283 45.8785C64.0283 43.2874 64.6069 41.2238 65.7642 39.6876C66.9317 38.1515 68.5242 37.3834 70.5417 37.3834C72.1599 37.3834 73.4963 37.9876 74.5512 39.1961V30.7163H79.0061V54.3122H74.9967L74.7816 52.5455C73.6756 53.9281 72.252 54.6194 70.511 54.6194C68.5549 54.6194 66.9829 53.8513 65.7949 52.3151C64.6172 50.7687 64.0283 48.6231 64.0283 45.8785ZM68.4679 46.2011C68.4679 47.7578 68.7393 48.9509 69.2821 49.7804C69.8249 50.6099 70.6134 51.0247 71.6478 51.0247C73.0201 51.0247 73.9879 50.4461 74.5512 49.2888V42.7293C73.9982 41.572 73.0406 40.9934 71.6785 40.9934C69.5381 40.9934 68.4679 42.7293 68.4679 46.2011Z" fill="#2E1449"/>
<path d="M90.0974 54.6194C87.66 54.6194 85.6732 53.8718 84.137 52.3766C82.6111 50.8813 81.8481 48.8894 81.8481 46.4008V45.9707C81.8481 44.3013 82.1707 42.8112 82.8159 41.5003C83.4611 40.1792 84.3726 39.1653 85.5503 38.4587C86.7383 37.7418 88.0901 37.3834 89.6058 37.3834C91.8794 37.3834 93.6665 38.1003 94.9671 39.534C96.278 40.9678 96.9334 43.0007 96.9334 45.6327V47.4454H86.3491C86.4925 48.531 86.9226 49.4015 87.6395 50.0569C88.3666 50.7124 89.2832 51.0401 90.3893 51.0401C92.0996 51.0401 93.4361 50.4205 94.3987 49.1813L96.5801 51.6238C95.9144 52.566 95.0132 53.3034 93.8764 53.8359C92.7397 54.3582 91.48 54.6194 90.0974 54.6194ZM89.5905 40.978C88.7097 40.978 87.9928 41.275 87.4398 41.869C86.897 42.463 86.5488 43.313 86.3952 44.4191H92.5707V44.0658C92.5502 43.0826 92.2839 42.3248 91.7719 41.7922C91.2598 41.2494 90.5327 40.978 89.5905 40.978Z" fill="#2E1449"/>
<path d="M105.797 42.6525L108.593 37.6906H113.34L108.608 45.8324L113.54 54.3122H108.777L105.813 49.0891L102.863 54.3122H98.0856L103.017 45.8324L98.3007 37.6906H103.063L105.797 42.6525Z" fill="#2E1449"/>
</svg>
